<svg xmlns="http://www.w3.org/2000/svg" width="156.85" height="232.87" version="1.1" viewBox="0 0 156.848 232.868" xml:space="preserve"><metadata/><defs><clipPath id="a" clipPathUnits="userSpaceOnUse"><path d="m0 792h612v-792h-612v792z"/></clipPath></defs><g><g clip-path="url(#a)" transform="matrix(1.25 0 0 -1.25 -432.74 577.52)"><g><path fill="none" stroke="#b2b3b3" stroke-miterlimit="10" stroke-width="8" d="m0 0h-32.652c-3.216 0-5.848 2.632-5.848 5.848v32.652" transform="translate(395.75 414.1)"/></g><g><path fill="none" stroke="#b2b3b3" stroke-miterlimit="10" stroke-width="8" d="m0 0h-19.506c-3.217 0-5.848 2.631-5.848 5.848v32.652" transform="translate(427.25 378.17)"/></g><g><path fill="none" stroke="#b2b3b3" stroke-miterlimit="10" stroke-width="8" d="m0 0h-19.006c-3.217 0-5.848 2.632-5.848 5.849v32.651" transform="translate(426.75 315.83)"/></g><g><path fill="none" stroke="#b2b3b3" stroke-miterlimit="10" stroke-width="8" d="m0 0h-32.652c-3.216 0-5.848 2.631-5.848 5.848v100.48" transform="translate(395.75 351.17)"/></g><g><path fill="none" stroke="#b2b3b3" stroke-miterlimit="10" stroke-width="8" d="m0 0h-32.652c-3.216 0-5.848 2.631-5.848 5.848v159.48" transform="translate(395.5 288.79)"/></g><g><path fill="#676868" d="m0 0v13.026l-11.281 6.514-11.281-6.514v-13.026l11.281-6.514 11.281 6.514z" transform="translate(413.17 407.48)"/></g><g><path fill="#676868" d="m0 0v13.026l-11.281 6.513-11.281-6.513v-13.026l11.281-6.514 11.281 6.514z" transform="translate(413.17 344.86)"/></g><g><path fill="#5d82c1" d="m0 0v13.026l-11.281 6.514-11.281-6.514v-13.026l11.281-6.514 11.281 6.514z" transform="translate(413.17 282.24)"/></g><g><path fill="#f26b6c" d="m0 0v13.026l-11.281 6.513-11.281-6.513v-13.026l11.281-6.514 11.281 6.514z" transform="translate(458.25 371.86)"/></g><g><path fill="#f26b6c" d="m0 0v13.026l-11.281 6.514-11.281-6.514v-13.026l11.281-6.514 11.281 6.514z" transform="translate(458.25 309.24)"/></g><g><path fill="#676868" d="m0 0v13.026l-11.281 6.514-11.281-6.514v-13.026l11.281-6.514 11.281 6.514z" transform="translate(368.75 442.48)"/></g><g><path fill="none" stroke="#f26b6c" stroke-miterlimit="10" stroke-width="4" d="m0 0h6.146" transform="translate(465.52 315.4)"/></g><g><path fill="none" stroke="#f26b6c" stroke-miterlimit="10" stroke-width="4" d="m0 0 4.835 3.792" transform="translate(461.51 328.09)"/></g><g><path fill="none" stroke="#f26b6c" stroke-miterlimit="10" stroke-width="4" d="m0 0 0.589 5.991" transform="translate(450.46 333.94)"/></g><g><path fill="none" stroke="#f26b6c" stroke-miterlimit="10" stroke-width="4" d="m0 0-3.633 5.521" transform="translate(436.8 331.35)"/></g><g><path fill="none" stroke="#f26b6c" stroke-miterlimit="10" stroke-width="4" d="m0 0 4.835-3.791" transform="translate(461.51 302.13)"/></g><g><path fill="none" stroke="#f26b6c" stroke-miterlimit="10" stroke-width="4" d="m0 0 1.35-5.991" transform="translate(450.46 296.28)"/></g><g><path fill="none" stroke="#f26b6c" stroke-miterlimit="10" stroke-width="4" d="m0 0-3.633-5.521" transform="translate(436.8 298.87)"/></g><g><path fill="none" stroke="#f26b6c" stroke-miterlimit="10" stroke-width="4" d="m0 0h6.146" transform="translate(465.52 378.4)"/></g><g><path fill="none" stroke="#f26b6c" stroke-miterlimit="10" stroke-width="4" d="m0 0 4.835 3.792" transform="translate(461.51 391.09)"/></g><g><path fill="none" stroke="#f26b6c" stroke-miterlimit="10" stroke-width="4" d="m0 0 0.589 5.992" transform="translate(450.46 396.94)"/></g><g><path fill="none" stroke="#f26b6c" stroke-miterlimit="10" stroke-width="4" d="m0 0-3.633 5.52" transform="translate(436.8 394.35)"/></g><g><path fill="none" stroke="#f26b6c" stroke-miterlimit="10" stroke-width="4" d="m0 0 4.835-3.791" transform="translate(461.51 365.13)"/></g><g><path fill="none" stroke="#f26b6c" stroke-miterlimit="10" stroke-width="4" d="m0 0 1.35-5.991" transform="translate(450.46 359.28)"/></g><g><path fill="none" stroke="#f26b6c" stroke-miterlimit="10" stroke-width="4" d="m0 0-3.633-5.521" transform="translate(436.8 361.87)"/></g></g></g></svg>