<svg xmlns="http://www.w3.org/2000/svg" width="108.94" height="232.87" version="1.1" viewBox="0 0 108.944 232.868" xml:space="preserve"><metadata/><defs><clipPath id="a" clipPathUnits="userSpaceOnUse"><path d="m0 792h612v-792h-612v792z"/></clipPath></defs><g><g clip-path="url(#a)" transform="matrix(1.25 0 0 -1.25 -457.03 577.52)"><g><path fill="none" stroke="#b2b3b3" stroke-miterlimit="10" stroke-width="8" d="m0 0h-32.652c-3.216 0-5.848 2.632-5.848 5.848v32.652" transform="translate(415.19 414.1)"/></g><g><path fill="none" stroke="#b2b3b3" stroke-miterlimit="10" stroke-width="8" d="m0 0h-17.59c-3.216 0-5.847 2.631-5.847 5.848v100.48" transform="translate(400.12 351.17)"/></g><g><path fill="none" stroke="#b2b3b3" stroke-miterlimit="10" stroke-width="8" d="m0 0h-32.652c-3.216 0-5.848 2.631-5.848 5.848v159.48" transform="translate(414.94 288.79)"/></g><g><path fill="#676868" d="m0 0v13.026l-11.281 6.514-11.281-6.514v-13.026l11.281-6.514 11.281 6.514z" transform="translate(432.6 407.48)"/></g><g><path fill="#676868" d="m0 0v13.026l-11.281 6.514-11.281-6.514v-13.026l11.281-6.514 11.281 6.514z" transform="translate(432.6 282.24)"/></g><g><path fill="#676868" d="m0 0v13.026l-11.281 6.514-11.281-6.514v-13.026l11.281-6.514 11.281 6.514z" transform="translate(388.19 442.48)"/></g><path fill="#fff" d="m429 347.25h-14v14.417h14v-14.417z"/><g><path fill="#f26b6c" d="m0 0c0-1.356-1.11-2.467-2.467-2.467-1.356 0-2.467 1.111-2.467 2.467v5.755c0 1.356 1.111 2.467 2.467 2.467 1.357 0 2.467-1.111 2.467-2.467v-5.755zm-8.414 0c0-1.356-1.11-2.467-2.467-2.467-1.356 0-2.467 1.111-2.467 2.467v5.755c0 1.356 1.111 2.467 2.467 2.467 1.357 0 2.467-1.111 2.467-2.467v-5.755zm9.647 16.033h-9.693c-4.954 0-9.008-4.054-9.008-9.008v-21.913l4.439-4.438 4.708 4.708 4.708-4.708 4.708 4.708 4.708-4.708 4.438 4.438v21.913c0 4.954-4.054 9.008-9.008 9.008" transform="translate(426.27 352.97)"/></g><g><path fill="none" stroke="#f26b6c" stroke-miterlimit="10" stroke-width="4" d="m0 0h7.961" transform="translate(444.82 351.23)"/></g><g><path fill="none" stroke="#f26b6c" stroke-miterlimit="10" stroke-width="4" d="m0 0 6.263 4.91" transform="translate(439.63 367.67)"/></g><g><path fill="none" stroke="#f26b6c" stroke-miterlimit="10" stroke-width="4" d="m0 0 0.763 7.76" transform="translate(425.32 375.24)"/></g><g><path fill="none" stroke="#f26b6c" stroke-miterlimit="10" stroke-width="4" d="m0 0-4.705 7.149" transform="translate(407.62 371.89)"/></g><g><path fill="none" stroke="#f26b6c" stroke-miterlimit="10" stroke-width="4" d="m0 0 6.263-4.91" transform="translate(439.63 334.04)"/></g><g><path fill="none" stroke="#f26b6c" stroke-miterlimit="10" stroke-width="4" d="m0 0 1.749-7.76" transform="translate(425.32 326.47)"/></g><g><path fill="none" stroke="#f26b6c" stroke-miterlimit="10" stroke-width="4" d="m0 0-4.705-7.149" transform="translate(407.62 329.82)"/></g></g></g></svg>